<?xml version="1.0" encoding="UTF-8" standalone="no"?>
<!-- Created with Inkscape (http://www.inkscape.org/) -->

<svg
   width="128"
   height="128"
   viewBox="0 0 128 128"
   version="1.1"
   id="svg5"
   shape-rendering="crispEdges"
   inkscape:version="1.1.2 (0a00cf5339, 2022-02-04)"
   sodipodi:docname="tour_breeding2.svg"
   xmlns:inkscape="http://www.inkscape.org/namespaces/inkscape"
   xmlns:sodipodi="http://sodipodi.sourceforge.net/DTD/sodipodi-0.dtd"
   xmlns="http://www.w3.org/2000/svg"
   xmlns:svg="http://www.w3.org/2000/svg">
  <sodipodi:namedview
     id="namedview7"
     pagecolor="#ffffff"
     bordercolor="#666666"
     borderopacity="1.0"
     inkscape:pageshadow="2"
     inkscape:pageopacity="0.0"
     inkscape:pagecheckerboard="0"
     inkscape:document-units="px"
     showgrid="true"
     units="px"
     width="128px"
     inkscape:zoom="5.1241863"
     inkscape:cx="77.08541"
     inkscape:cy="85.08668"
     inkscape:window-width="1906"
     inkscape:window-height="1366"
     inkscape:window-x="26"
     inkscape:window-y="23"
     inkscape:window-maximized="0"
     inkscape:current-layer="layer2"
     inkscape:snap-grids="true">
    <inkscape:grid
       type="xygrid"
       id="grid19724"
       dotted="false" />
  </sodipodi:namedview>
  <defs
     id="defs2">
    <marker
       style="overflow:visible"
       id="Arrow1Sstart"
       refX="0.0"
       refY="0.0"
       orient="auto"
       inkscape:stockid="Arrow1Sstart"
       inkscape:isstock="true">
      <path
         transform="scale(0.2) translate(6,0)"
         style="fill-rule:evenodd;fill:context-stroke;stroke:context-stroke;stroke-width:1.0pt"
         d="M 0.0,0.0 L 5.0,-5.0 L -12.5,0.0 L 5.0,5.0 L 0.0,0.0 z "
         id="path16778" />
    </marker>
    <marker
       style="overflow:visible"
       id="Arrow2Mstart"
       refX="0.0"
       refY="0.0"
       orient="auto"
       inkscape:stockid="Arrow2Mstart"
       inkscape:isstock="true">
      <path
         transform="scale(0.6) translate(0,0)"
         d="M 8.7185878,4.0337352 L -2.2072895,0.016013256 L 8.7185884,-4.0017078 C 6.9730900,-1.6296469 6.9831476,1.6157441 8.7185878,4.0337352 z "
         style="stroke:context-stroke;fill-rule:evenodd;fill:context-stroke;stroke-width:0.62500000;stroke-linejoin:round"
         id="path16790" />
    </marker>
    <marker
       style="overflow:visible"
       id="marker17044"
       refX="0.0"
       refY="0.0"
       orient="auto"
       inkscape:stockid="Arrow2Lstart"
       inkscape:isstock="true">
      <path
         transform="scale(1.1) translate(1,0)"
         d="M 8.7185878,4.0337352 L -2.2072895,0.016013256 L 8.7185884,-4.0017078 C 6.9730900,-1.6296469 6.9831476,1.6157441 8.7185878,4.0337352 z "
         style="stroke:context-stroke;fill-rule:evenodd;fill:context-stroke;stroke-width:0.62500000;stroke-linejoin:round"
         id="path17042" />
    </marker>
    <marker
       style="overflow:visible"
       id="Arrow1Lstart"
       refX="0.0"
       refY="0.0"
       orient="auto"
       inkscape:stockid="Arrow1Lstart"
       inkscape:isstock="true">
      <path
         transform="scale(0.8) translate(12.5,0)"
         style="fill-rule:evenodd;fill:context-stroke;stroke:context-stroke;stroke-width:1.0pt"
         d="M 0.0,0.0 L 5.0,-5.0 L -12.5,0.0 L 5.0,5.0 L 0.0,0.0 z "
         id="path16766" />
    </marker>
    <marker
       style="overflow:visible"
       id="Arrow2Lstart"
       refX="0.0"
       refY="0.0"
       orient="auto"
       inkscape:stockid="Arrow2Lstart"
       inkscape:isstock="true">
      <path
         transform="scale(1.1) translate(1,0)"
         d="M 8.7185878,4.0337352 L -2.2072895,0.016013256 L 8.7185884,-4.0017078 C 6.9730900,-1.6296469 6.9831476,1.6157441 8.7185878,4.0337352 z "
         style="stroke:context-stroke;fill-rule:evenodd;fill:context-stroke;stroke-width:0.62500000;stroke-linejoin:round"
         id="path16784" />
    </marker>
  </defs>
  <g
     inkscape:label="Layer 1"
     inkscape:groupmode="layer"
     id="layer1"
     sodipodi:insensitive="true">
    <rect
       style="fill:#000000;fill-opacity:1;fill-rule:evenodd"
       id="rect31"
       width="128.60579"
       height="127.82517"
       x="-0.19515294"
       y="0.19515294" />
  </g>
  <g
     inkscape:groupmode="layer"
     id="layer2"
     inkscape:label="Layer 2">
    <text
       xml:space="preserve"
       style="font-size:15.2508px;line-height:1.25;font-family:sans-serif;stroke-width:1.69454"
       x="15.28901"
       y="28.262556"
       id="text8125"
       transform="scale(1.0088222,0.99125496)"><tspan
         sodipodi:role="line"
         id="tspan8123"
         x="15.28901"
         y="28.262556"
         style="fill:#ffffff;fill-opacity:1;stroke-width:1.69454" /></text>
    <text
       xml:space="preserve"
       style="font-size:16px;line-height:1;font-family:sans-serif"
       x="63.685566"
       y="18.68152"
       id="text5523"><tspan
         sodipodi:role="line"
         x="63.685566"
         y="18.68152"
         style="font-style:normal;font-variant:normal;font-weight:bold;font-stretch:normal;font-size:16px;font-family:'Liberation Sans';-inkscape-font-specification:'Liberation Sans, Bold';font-variant-ligatures:normal;font-variant-caps:normal;font-variant-numeric:normal;font-variant-east-asian:normal;text-align:center;text-anchor:middle;fill:#ffffff;fill-opacity:1"
         id="tspan235867"><tspan
           id="tspan235859"
           style="font-style:normal;font-variant:normal;font-weight:bold;font-stretch:normal;font-size:16px;font-family:'Liberation Sans';-inkscape-font-specification:'Liberation Sans, Bold';font-variant-ligatures:normal;font-variant-caps:normal;font-variant-numeric:normal;font-variant-east-asian:normal;text-align:center;text-anchor:middle;fill:#ffffff;fill-opacity:1"
           dy="0">2. Sender</tspan></tspan><tspan
         sodipodi:role="line"
         x="63.685566"
         y="35.173771"
         style="font-style:normal;font-variant:normal;font-weight:bold;font-stretch:normal;font-size:16px;font-family:'Liberation Sans';-inkscape-font-specification:'Liberation Sans, Bold';font-variant-ligatures:normal;font-variant-caps:normal;font-variant-numeric:normal;font-variant-east-asian:normal;text-align:center;text-anchor:middle;fill:#ffffff;fill-opacity:1"
         id="tspan55504">scans your</tspan><tspan
         sodipodi:role="line"
         x="63.685566"
         y="51.666019"
         style="font-style:normal;font-variant:normal;font-weight:bold;font-stretch:normal;font-size:16px;font-family:'Liberation Sans';-inkscape-font-specification:'Liberation Sans, Bold';font-variant-ligatures:normal;font-variant-caps:normal;font-variant-numeric:normal;font-variant-east-asian:normal;text-align:center;text-anchor:middle;fill:#ffffff;fill-opacity:1"
         id="tspan55506">NONCE</tspan><tspan
         sodipodi:role="line"
         x="63.685566"
         y="68.158272"
         style="font-style:normal;font-variant:normal;font-weight:bold;font-stretch:normal;font-size:16px;font-family:'Liberation Sans';-inkscape-font-specification:'Liberation Sans, Bold';font-variant-ligatures:normal;font-variant-caps:normal;font-variant-numeric:normal;font-variant-east-asian:normal;text-align:center;text-anchor:middle;fill:#ffffff;fill-opacity:1"
         id="tspan235871" /></text>
    <text
       xml:space="preserve"
       style="font-size:16px;line-height:1.25;font-family:sans-serif"
       x="59.592438"
       y="114.62787"
       id="text5523-7"><tspan
         sodipodi:role="line"
         x="59.592438"
         y="114.62787"
         style="font-style:normal;font-variant:normal;font-weight:bold;font-stretch:normal;font-size:16px;font-family:'Liberation Sans';-inkscape-font-specification:'Liberation Sans, Bold';font-variant-ligatures:normal;font-variant-caps:normal;font-variant-numeric:normal;font-variant-east-asian:normal;text-align:center;text-anchor:middle;fill:#ffffff;fill-opacity:1"
         id="tspan76457-0" /></text>
    <rect
       style="fill:#ffffff;stroke:#ffffff;stroke-width:2.91218"
       id="rect58016"
       width="70"
       height="70"
       x="30"
       y="59.456089" />
    <g
       id="g4542"
       transform="matrix(0.02035143,0,0,-0.02059413,19.64857,138.69527)"
       style="fill:#000000;stroke:none">
      <path
         id="path4544"
         d="m 720,3190 v -490 h 490 490 v 490 490 H 1210 720 Z m 840,0 V 2840 H 1210 860 v 350 350 h 350 350 z"
         inkscape:connector-curvature="0"
         style="fill:#000000" />
      <path
         id="path4546"
         d="m 1000,3190 v -210 h 210 210 v 210 210 h -210 -210 z"
         inkscape:connector-curvature="0"
         style="fill:#000000" />
      <path
         id="path4548"
         d="m 2120,3610 v -70 h 140 140 v -210 -210 h -140 -140 v -210 -210 h 70 70 v 140 140 h 140 140 v 280 280 h -70 -70 v 70 70 h -140 -140 z"
         inkscape:connector-curvature="0"
         style="fill:#000000" />
      <path
         id="path4550"
         d="m 2680,3190 v -490 h 490 490 v 490 490 h -490 -490 z m 840,0 v -350 h -350 -350 v 350 350 h 350 350 z"
         inkscape:connector-curvature="0"
         style="fill:#000000" />
      <path
         id="path4552"
         d="m 2960,3190 v -210 h 210 210 v 210 210 h -210 -210 z"
         inkscape:connector-curvature="0"
         style="fill:#000000" />
      <path
         id="path4554"
         d="m 1840,3120 v -420 h 70 70 v 420 420 h -70 -70 z"
         inkscape:connector-curvature="0"
         style="fill:#000000" />
      <path
         id="path4556"
         d="m 2400,2770 v -70 h 70 70 v 70 70 h -70 -70 z"
         inkscape:connector-curvature="0"
         style="fill:#000000" />
      <path
         id="path4558"
         d="m 1000,2490 v -70 h 70 70 v -140 -140 h -70 -70 v 70 70 H 860 720 v -70 -70 h 70 70 v -70 -70 h -70 -70 v -70 -70 h 210 210 v 70 70 h 70 70 v 70 70 h 70 70 v 70 70 h 70 70 v -70 -70 h 140 140 v -70 -70 h -140 -140 v -70 -70 h 140 140 v -210 -210 h 140 140 v -70 -70 h 70 70 v -70 -70 h 140 140 v -70 -70 h -70 -70 v -70 -70 h -70 -70 v 70 70 h -70 -70 v 70 70 h -140 -140 v -70 -70 h 70 70 v -70 -70 h 70 70 v -70 -70 h 140 140 v 70 70 h 70 70 v 70 70 h 70 70 V 880 740 h 70 70 v 280 280 h 140 140 v 70 70 h -70 -70 v 70 70 h 140 140 v 70 70 h -140 -140 v 70 70 h -70 -70 v -140 -140 h -70 -70 v 280 280 h 70 70 v 140 140 h 140 140 v -70 -70 h 70 70 v -70 -70 h -140 -140 v -70 -70 h 140 140 v 70 70 h 70 70 v 70 70 h -70 -70 v 70 70 h 140 140 v -280 -280 h -70 -70 v -70 -70 h 70 70 v -70 -70 h 70 70 v 70 70 h -70 -70 v 70 70 h 70 70 v 280 280 h -70 -70 v 70 70 h -350 -350 v -70 -70 h -70 -70 v 70 70 h -70 -70 v -70 -70 h -70 -70 v 70 70 h -490 -490 v -70 -70 h -140 -140 v 70 70 h -70 -70 z m 700,-140 v -70 h -70 -70 v 70 70 h 70 70 z m 980,-70 v -140 h -70 -70 v -70 -70 h -70 -70 v 70 70 h -70 -70 v -70 -70 h -70 -70 v -70 -70 h 140 140 v -70 -70 h -140 -140 v 70 70 h -140 -140 v 70 70 h 70 70 v 70 70 h -70 -70 v 70 70 h 140 140 v -70 -70 h 70 70 v 70 70 h 70 70 v -70 -70 h 70 70 v 140 140 h 70 70 z m -280,-770 v -70 h 70 70 v 70 70 h 70 70 v -70 -70 h 70 70 v -70 -70 h -70 -70 v 70 70 h -70 -70 v -70 -70 h -140 -140 v 70 70 h -70 -70 v 70 70 h 140 140 z"
         inkscape:connector-curvature="0"
         style="fill:#000000" />
      <path
         id="path4560"
         d="M 720,1230 V 740 h 490 490 v 490 490 H 1210 720 Z m 840,0 V 880 H 1210 860 v 350 350 h 350 350 z"
         inkscape:connector-curvature="0"
         style="fill:#000000" />
      <path
         id="path4562"
         d="m 1000,1230 v -210 h 210 210 v 210 210 h -210 -210 z"
         inkscape:connector-curvature="0"
         style="fill:#000000" />
      <path
         id="path4564"
         d="m 3520,1370 v -70 h 70 70 v 70 70 h -70 -70 z"
         inkscape:connector-curvature="0"
         style="fill:#000000" />
      <path
         id="path4566"
         d="m 3240,1090 v -70 h 210 210 v 70 70 h -210 -210 z"
         inkscape:connector-curvature="0"
         style="fill:#000000" />
      <path
         id="path4568"
         d="m 2960,950 v -70 h 70 70 v -70 -70 h 140 140 v 70 70 h -140 -140 v 70 70 h -70 -70 z"
         inkscape:connector-curvature="0"
         style="fill:#000000" />
      <path
         id="path4570"
         d="m 3520,810 v -70 h 70 70 v 70 70 h -70 -70 z"
         inkscape:connector-curvature="0"
         style="fill:#000000" />
    </g>
  </g>
</svg>
